<svg width="636" height="516" viewBox="0 0 636 516" fill="none" xmlns="http://www.w3.org/2000/svg">
<g id="Frame">
<path id="Vector" d="M318 516C493.627 516 636 505.389 636 492.299C636 479.209 493.627 468.598 318 468.598C142.373 468.598 0 479.209 0 492.299C0 505.389 142.373 516 318 516Z" fill="#D0CDE1"/>
<path id="Vector_2" d="M413.895 514.501C413.895 514.501 411.693 499.46 394.648 499.589L413.895 514.501Z" fill="#3F3D56"/>
<path id="Vector_3" d="M569.077 473.084V489.303L553.261 492.718L550.386 484.181L556.137 469.669L569.077 473.084Z" fill="#FBBEBE"/>
<path id="Vector_4" d="M626.588 451.743L630.182 468.816L614.367 473.938L612.929 456.011L626.588 451.743Z" fill="#FBBEBE"/>
<path id="Vector_5" d="M600.708 296.382L598.551 319.43L599.989 363.819C600.274 363.812 600.557 363.873 600.822 363.999C601.086 364.125 601.326 364.313 601.528 364.553C601.729 364.792 601.888 365.077 601.994 365.391C602.1 365.705 602.152 366.041 602.146 366.38C602.146 368.941 599.989 368.087 602.146 369.794C603.303 370.727 604.503 371.582 605.74 372.355L628.745 455.158C628.745 455.158 622.994 463.694 612.21 461.133L610.054 452.597C610.054 452.597 605.74 447.475 605.74 444.914C605.74 442.353 607.178 441.499 605.74 438.938C604.303 436.378 582.736 384.306 582.736 384.306L572.671 362.965L569.796 391.989C569.796 391.989 575.547 428.695 574.109 445.768C572.671 462.84 569.796 480.767 569.796 480.767L552.542 477.352C552.464 474.597 551.715 471.929 550.386 469.669C548.229 466.255 545.353 467.108 548.229 464.548C551.104 461.987 554.699 464.548 551.823 461.133C548.948 457.719 548.948 454.304 548.948 454.304V451.743L544.634 386.013L536.727 299.796L600.708 296.382Z" fill="#2F2E41"/>
<path id="Vector_6" d="M564.044 485.035L571.952 481.62C571.952 481.62 580.579 504.668 573.39 504.668H554.699C554.699 504.668 543.915 500.4 538.164 500.4C532.413 500.4 521.629 487.596 529.537 481.62C537.445 475.645 547.51 477.352 547.51 477.352L550.385 469.669L553.98 481.62C553.98 481.62 558.293 490.156 564.044 485.035Z" fill="#2F2E41"/>
<path id="Vector_7" d="M622.275 466.255C622.275 466.255 626.776 462.882 629.198 464.141C631.62 465.401 633.058 479.059 633.058 479.059C633.058 479.059 640.247 489.303 624.431 491.01C608.615 492.717 605.021 489.303 603.583 484.181C602.145 479.059 605.021 473.937 605.021 473.937L609.334 472.23C609.334 472.23 614.367 467.962 612.929 466.255C611.491 464.547 612.929 461.133 612.929 461.133C612.929 461.133 617.961 473.084 622.275 466.255Z" fill="#2F2E41"/>
<path id="Vector_8" d="M37.9608 329.014L26.0373 381.922L12.8586 446.006H25.4097C25.4097 446.006 29.8026 425.887 37.9607 415.454C37.9607 415.454 46.1189 399.06 46.1189 387.883L65.573 333.485L37.9608 329.014Z" fill="#A0616A"/>
<path id="Vector_9" d="M27.9199 444.516H10.3484L6.58308 481.029C6.58308 481.029 -3.45774 500.404 11.6035 498.168C26.6647 495.933 21.6443 475.813 21.6443 475.813L25.4096 468.361L26.6647 484.01L27.9199 483.265V466.126C27.9199 466.126 34.8229 458.674 27.9199 444.516Z" fill="#2F2E41"/>
<path id="Vector_10" d="M89.4199 331.995L93.1852 381.922C93.1852 381.922 92.5577 417.69 93.1852 425.887C93.8128 434.083 93.1852 446.006 93.1852 446.006H104.481C104.481 446.006 115.15 402.041 112.012 378.196L116.405 322.308L89.4199 331.995Z" fill="#A0616A"/>
<path id="Vector_11" d="M107.619 444.516L91.3025 443.026L88.1648 484.755C88.1648 484.755 86.2821 500.404 97.5781 498.168C108.874 495.933 105.109 483.265 105.109 483.265V460.164L107.619 444.516Z" fill="#2F2E41"/>
<path id="Vector_12" d="M430.269 447.575C432.941 447.575 435.108 445.003 435.108 441.829C435.108 438.656 432.941 436.083 430.269 436.083C427.596 436.083 425.43 438.656 425.43 441.829C425.43 445.003 427.596 447.575 430.269 447.575Z" fill="#02DA99"/>
<path id="Vector_13" d="M416.923 514.546C416.838 514.38 414.824 510.387 414.125 502.094C413.485 494.487 413.897 481.663 419.498 463.775C430.108 429.887 417.052 402.545 416.919 402.272L417.563 401.828C420.077 407.541 421.893 413.649 422.956 419.969C425.586 434.687 424.628 449.989 420.196 464.083C409.603 497.913 417.478 513.928 417.559 514.086L416.923 514.546Z" fill="#3F3D56"/>
<path id="Vector_14" d="M419.846 514.758C419.846 514.758 415.008 500.614 429.524 490.006L419.846 514.758Z" fill="#3F3D56"/>
<path id="Vector_15" d="M218.858 472.733C218.858 472.733 216.655 457.692 199.61 457.821L218.858 472.733Z" fill="#D0CDE1"/>
<path id="Vector_16" d="M413.891 466.139C416.563 466.139 418.73 463.566 418.73 460.393C418.73 457.22 416.563 454.647 413.891 454.647C411.218 454.647 409.052 457.22 409.052 460.393C409.052 463.566 411.218 466.139 413.891 466.139Z" fill="#3F3D56"/>
<path id="Vector_17" d="M417.613 435.642C420.286 435.642 422.452 433.069 422.452 429.896C422.452 426.722 420.286 424.15 417.613 424.15C414.941 424.15 412.774 426.722 412.774 429.896C412.774 433.069 414.941 435.642 417.613 435.642Z" fill="#02DA99"/>
<path id="Vector_18" d="M428.035 421.498C430.708 421.498 432.874 418.925 432.874 415.752C432.874 412.579 430.708 410.006 428.035 410.006C425.363 410.006 423.196 412.579 423.196 415.752C423.196 418.925 425.363 421.498 428.035 421.498Z" fill="#3F3D56"/>
<path id="Vector_19" d="M235.231 405.807C237.903 405.807 240.07 403.235 240.07 400.061C240.07 396.888 237.903 394.315 235.231 394.315C232.559 394.315 230.392 396.888 230.392 400.061C230.392 403.235 232.559 405.807 235.231 405.807Z" fill="#D0CDE1"/>
<path id="Vector_20" d="M412.774 400.282C415.446 400.282 417.613 397.71 417.613 394.536C417.613 391.363 415.446 388.791 412.774 388.791C410.102 388.791 407.935 391.363 407.935 394.536C407.935 397.71 410.102 400.282 412.774 400.282Z" fill="#3F3D56"/>
<path id="Vector_21" d="M221.886 472.778C221.8 472.612 219.786 468.619 219.088 460.326C218.447 452.719 218.859 439.895 224.46 422.007C235.07 388.119 222.015 360.776 221.881 360.504L222.525 360.06C225.039 365.773 226.855 371.881 227.918 378.201C230.548 392.919 229.59 408.221 225.158 422.315C214.565 456.145 222.44 472.16 222.521 472.318L221.886 472.778Z" fill="#D0CDE1"/>
<path id="Vector_22" d="M224.809 472.99C224.809 472.99 219.97 458.846 234.487 448.238L224.809 472.99Z" fill="#D0CDE1"/>
<path id="Vector_23" d="M218.853 424.371C221.526 424.371 223.692 421.798 223.692 418.625C223.692 415.452 221.526 412.879 218.853 412.879C216.181 412.879 214.014 415.452 214.014 418.625C214.014 421.798 216.181 424.371 218.853 424.371Z" fill="#3F3D56"/>
<path id="Vector_24" d="M222.575 393.873C225.248 393.873 227.414 391.301 227.414 388.128C227.414 384.954 225.248 382.382 222.575 382.382C219.903 382.382 217.737 384.954 217.737 388.128C217.737 391.301 219.903 393.873 222.575 393.873Z" fill="#D0CDE1"/>
<path id="Vector_25" d="M232.998 379.73C235.67 379.73 237.837 377.157 237.837 373.984C237.837 370.811 235.67 368.238 232.998 368.238C230.325 368.238 228.159 370.811 228.159 373.984C228.159 377.157 230.325 379.73 232.998 379.73Z" fill="#3F3D56"/>
<path id="Vector_26" d="M217.736 358.514C220.409 358.514 222.575 355.942 222.575 352.768C222.575 349.595 220.409 347.023 217.736 347.023C215.064 347.023 212.897 349.595 212.897 352.768C212.897 355.942 215.064 358.514 217.736 358.514Z" fill="#3F3D56"/>
<path id="Vector_27" d="M502.939 0H133.061V179.169H502.939V0Z" fill="#3F3D56"/>
<path id="Vector_28" d="M292.882 168.952H320.459C322.341 156.034 322.341 142.828 320.459 129.91H292.882C295.989 142.662 295.989 156.199 292.882 168.952Z" fill="#02DA99"/>
<path id="Vector_29" d="M178.047 139.619H205.623C207.505 126.701 207.505 113.495 205.623 100.577H178.047C181.153 113.329 181.153 126.866 178.047 139.619Z" fill="#02DA99"/>
<path id="Vector_30" d="M286.669 101.014L326.037 98.8436C327.32 98.7728 327.328 96.3941 326.037 96.4652L286.669 98.636C285.385 98.7068 285.378 101.086 286.669 101.014Z" fill="#F1F1F1"/>
<path id="Vector_31" d="M551.823 141.02C562.543 141.02 571.233 130.701 571.233 117.972C571.233 105.243 562.543 94.9241 551.823 94.9241C541.103 94.9241 532.413 105.243 532.413 117.972C532.413 130.701 541.103 141.02 551.823 141.02Z" fill="#FBBEBE"/>
<path id="Vector_32" d="M568.718 118.399L576.625 141.447L557.934 157.666L546.432 133.765L568.718 118.399Z" fill="#FBBEBE"/>
<path id="Vector_33" d="M569.796 135.899L576.984 131.63L581.298 143.581C581.298 143.581 609.335 153.825 607.178 200.775C605.021 247.725 599.989 265.651 599.989 265.651C599.989 265.651 612.21 296.382 605.021 299.796C597.832 303.211 536.726 316.015 535.289 304.064C533.851 292.113 540.321 222.115 540.321 222.115C540.321 222.115 538.164 171.751 556.136 161.508L552.542 152.118L569.796 135.899Z" fill="#D0CDE1"/>
<path id="Vector_34" d="M530.256 301.503C530.256 301.503 513.722 321.991 523.068 327.112C532.413 332.234 538.164 304.064 538.164 304.064L530.256 301.503Z" fill="#FBBEBE"/>
<path id="Vector_35" d="M151.548 257.478C151.548 257.478 170.374 276.107 167.864 282.069C165.354 288.03 149.038 275.362 147.782 260.459L151.548 257.478Z" fill="#A0616A"/>
<path id="Vector_36" d="M41.7261 235.868C41.7261 235.868 44.2363 257.478 51.7669 257.478C59.2976 257.478 46.7465 232.887 46.7465 232.887L41.7261 235.868Z" fill="#A0616A"/>
<path id="Vector_37" d="M561.887 167.483C561.887 167.483 583.454 177.727 576.984 200.775C570.514 223.823 553.261 294.674 553.261 294.674L543.196 300.65L540.321 310.04L526.662 304.064L528.818 291.26C528.818 291.26 529.537 290.406 529.537 286.992C529.537 283.577 526.662 282.724 530.256 282.724C533.851 282.724 533.851 278.455 533.851 278.455L546.791 182.848C546.791 182.848 546.791 166.629 561.887 167.483Z" fill="#D0CDE1"/>
<path id="Vector_38" opacity="0.1" d="M578.063 205.47L555.777 295.954L546.432 307.052L551.823 295.528L578.063 205.47Z" fill="black"/>
<path id="Vector_39" d="M43.2949 151.291L65.8866 155.762L73.4172 113.287L55.2185 104.345L43.2949 151.291Z" fill="#2F2E41"/>
<path id="Vector_40" d="M74.3587 142.722C85.1029 142.722 93.8128 132.379 93.8128 119.621C93.8128 106.863 85.1029 96.521 74.3587 96.521C63.6144 96.521 54.9045 106.863 54.9045 119.621C54.9045 132.379 63.6144 142.722 74.3587 142.722Z" fill="#A0616A"/>
<path id="Vector_41" d="M65.8867 132.662C65.8867 132.662 67.7693 160.978 53.3356 163.214C38.9019 165.449 65.8867 216.121 72.7898 215.376C79.6929 214.631 92.2439 160.233 92.2439 160.233C92.2439 160.233 75.9276 146.82 81.5755 134.897L65.8867 132.662Z" fill="#A0616A"/>
<path id="Vector_42" d="M74.3587 194.884C74.3587 194.884 57.4511 178.973 61.8258 156.749C61.8258 156.749 44.8638 157.625 37.9607 165.822C31.0576 174.019 39.8434 201.59 39.8434 201.59C39.8434 201.59 54.9046 231.397 52.3944 244.81C49.8842 258.223 22.8995 329.014 31.6852 333.485C40.4709 337.956 93.8129 353.605 120.798 327.524C120.798 327.524 127.701 253.752 100.088 229.907V211.277C100.088 211.277 105.109 206.061 102.599 192.648C102.599 192.648 113.267 169.548 106.991 165.077C100.716 160.606 86.3006 154.053 86.3006 154.053C86.3006 154.053 87.5373 187.432 74.3587 194.884Z" fill="#2F2E41"/>
<path id="Vector_43" d="M103.854 165.822C103.854 165.822 112.64 165.822 116.405 178.49C120.17 191.158 142.134 234.378 142.134 234.378L154.686 257.478L145.9 269.401L121.425 236.613L98.2058 191.158L103.854 165.822Z" fill="#2F2E41"/>
<path id="Vector_44" d="M41.7261 165.822C41.7261 165.822 33.5679 164.332 25.4098 178.49C17.2516 192.648 -4.08517 215.003 5.95564 226.181C15.9965 237.358 42.9812 244.81 42.9812 244.81L49.2567 231.397L22.272 215.748L44.8639 195.629L41.7261 165.822Z" fill="#2F2E41"/>
<path id="Vector_45" d="M60.2388 96.1484C60.2388 96.1484 51.0964 99.767 50.6321 114.058C50.585 116.343 50.7984 118.626 51.2667 120.844C51.7815 123.434 52.1125 129.009 48.1229 136.293C45.4515 141.102 43.011 146.087 40.8133 151.223L40.7847 151.291L50.8255 152.781L52.9605 133.019C53.9956 123.437 56.2131 114.089 59.5417 105.274L59.6112 105.09C59.6112 105.09 64.0041 114.778 72.7898 114.778L69.6521 111.052C69.6521 111.052 83.4582 117.758 88.4786 117.758C88.4786 117.758 92.2439 120.739 88.4786 125.21C84.7133 129.681 77.1827 140.113 81.5756 148.31C85.9684 156.507 82.2031 158.743 82.2031 158.743L89.1062 154.272L92.2439 152.036V155.017L108.56 152.781C108.56 152.781 112.953 152.036 103.54 139.368C103.54 139.368 101.054 134.449 102.142 130.206C103.035 126.982 103.27 123.551 102.827 120.197C100.718 106.228 92.4441 78.4546 60.2388 96.1484Z" fill="#2F2E41"/>
<path id="Vector_46" d="M347.992 89.7062H385.464C385.724 89.6955 385.97 89.5656 386.15 89.3437C386.331 89.1219 386.432 88.8255 386.432 88.517C386.432 88.2086 386.331 87.9122 386.15 87.6904C385.97 87.4685 385.724 87.3385 385.464 87.3279H347.992C347.732 87.3385 347.486 87.4685 347.306 87.6904C347.125 87.9122 347.024 88.2086 347.024 88.517C347.024 88.8255 347.125 89.1219 347.306 89.3437C347.486 89.5656 347.732 89.6955 347.992 89.7062Z" fill="#F1F1F1"/>
<path id="Vector_47" d="M288.188 89.3716C302.068 89.6345 315.948 89.5638 329.827 89.1592C331.113 89.1217 331.118 86.7432 329.827 86.7809C315.949 87.1854 302.07 87.2562 288.188 86.9932C287.928 87.0039 287.682 87.1339 287.502 87.3558C287.322 87.5776 287.221 87.874 287.221 88.1824C287.221 88.4908 287.322 88.7872 287.502 89.009C287.682 89.2309 287.928 89.3609 288.188 89.3716Z" fill="#F1F1F1"/>
<path id="Vector_48" d="M558.462 117.603C558.383 116.857 558.242 116.122 558.04 115.41C556.997 112.811 552.926 113.569 552.201 110.822C552.059 110.285 552.089 109.7 551.95 109.161C551.595 107.787 550.234 107.106 549.026 107.172C547.827 107.369 546.651 107.728 545.521 108.244C542.677 109.202 539.651 108.836 536.712 108.462C535.401 108.41 534.117 108.013 532.951 107.3C531.838 106.487 531.036 104.85 531.441 103.375C531.83 101.96 533.133 101.183 533.72 99.8676C534.65 97.7794 533.513 95.0824 534.268 92.8965C535.479 89.39 540.063 90.0941 542.392 87.5022C542.957 86.8731 543.364 86.0689 543.906 85.4113C545.513 83.4603 548.052 83.0827 550.339 83.3518C552.627 83.6209 554.875 84.4186 557.173 84.3703C559.352 84.3245 561.637 83.5364 563.645 84.5431C564.826 85.2607 565.863 86.2723 566.686 87.5089L571.837 94.2172C572.544 95.0092 573.089 95.9834 573.429 97.0649C573.739 98.3502 573.454 99.7302 573.586 101.058C573.887 104.086 576.275 106.373 576.597 109.398C576.662 110.337 576.624 111.281 576.483 112.207L575.762 118.524C575.725 119.141 575.587 119.742 575.355 120.295C575.145 120.72 574.828 121.057 574.592 121.462C573.925 122.608 573.986 124.122 573.654 125.458C573.323 126.794 572.134 128.116 571.095 127.472C570.416 127.052 569.968 123.578 569.144 122.677C567.996 121.42 567.396 121.575 565.98 121.597C563.142 121.639 559.37 121.928 558.462 117.603Z" fill="#2F2E41"/>
<path id="Vector_49" d="M287.052 78.5886C300.554 78.8325 314.055 78.7686 327.556 78.3968C328.843 78.3613 328.847 75.9829 327.556 76.0185C314.056 76.3902 300.555 76.4541 287.052 76.2102C286.793 76.2209 286.547 76.3509 286.366 76.5728C286.186 76.7946 286.085 77.091 286.085 77.3994C286.085 77.7078 286.186 78.0042 286.366 78.2261C286.547 78.4479 286.793 78.5779 287.052 78.5886Z" fill="#F1F1F1"/>
<path id="Vector_50" d="M383.822 76.1088L389.677 82.4543C390.347 83.18 392.188 84.6781 392.604 85.627C393.465 87.5888 392.54 87.1412 391.066 87.821C387.445 89.5324 384.107 91.9931 381.209 95.0889C380.24 96.1028 381.661 97.7795 382.626 96.7706C385.269 93.95 388.305 91.6977 391.599 90.1144C392.78 89.5596 395.021 89.2347 395.582 87.5642C396.269 85.5196 394.081 84.0109 393.045 82.8877L385.239 74.427C384.288 73.3969 382.868 75.0742 383.822 76.1088Z" fill="#F1F1F1"/>
<path id="Vector_51" d="M416.647 74.1508C431.218 74.3327 445.775 73.7985 460.317 72.5481L459.352 71.0428C456.971 78.2048 457.037 85.7534 457.352 93.3298C457.431 95.2281 457.933 97.7879 457.608 99.668C457.2 102.032 455.413 101.467 453.635 101.535C449.72 101.686 445.803 101.794 441.886 101.86C438.186 101.922 434.486 101.946 430.786 101.933C429.045 101.926 427.304 101.912 425.563 101.889C423.518 101.862 421.194 102.567 420.666 99.7547C420.328 97.9535 420.669 95.5843 420.67 93.7318L420.674 86.956L420.681 73.4044C420.672 73.0962 420.563 72.8041 420.376 72.5898C420.189 72.3754 419.94 72.2556 419.68 72.2556C419.42 72.2556 419.17 72.3754 418.984 72.5898C418.797 72.8041 418.687 73.0962 418.678 73.4044L418.669 89.9675L418.665 97.4961C418.664 98.9916 418.402 100.798 418.872 102.218C419.954 105.484 424.628 104.258 426.869 104.283C431.439 104.333 436.01 104.325 440.58 104.258C445.15 104.193 449.72 104.069 454.288 103.889C456.256 103.811 458.979 104.342 459.576 101.46C459.995 99.4397 459.507 96.8051 459.417 94.7432C459.316 92.3902 459.206 90.0366 459.179 87.6802C459.117 82.1776 459.571 76.8244 461.283 71.6751C461.323 71.4986 461.328 71.3135 461.299 71.1341C461.269 70.9548 461.205 70.7859 461.112 70.6404C461.019 70.495 460.898 70.377 460.761 70.2954C460.623 70.2138 460.471 70.1708 460.317 70.1698C445.783 71.4199 431.226 71.9541 416.647 71.7725C416.387 71.7831 416.141 71.9131 415.961 72.135C415.78 72.3568 415.679 72.6532 415.679 72.9616C415.679 73.2701 415.78 73.5665 415.961 73.7883C416.141 74.0102 416.387 74.1401 416.647 74.1508L416.647 74.1508Z" fill="#F1F1F1"/>
<path id="Vector_52" d="M420.799 75.4431C427.037 78.0643 433.118 81.1826 439.002 84.7769C444.28 88.0162 451.191 91.5547 454.824 97.3442C455.585 98.5576 457.325 97.3731 456.553 96.1438C452.844 90.2318 446.457 86.7531 441.093 83.3928C434.72 79.4219 428.117 75.9987 421.332 73.1498C420.115 72.6354 419.592 74.9325 420.799 75.4431Z" fill="#F1F1F1"/>
<path id="Vector_53" d="M459.976 71.2076C453.358 74.5684 447.75 81.0436 441.835 85.8416C435.433 91.035 428.84 95.8682 422.056 100.341C420.93 101.087 421.939 103.143 423.067 102.395C429.836 97.9064 436.429 93.0732 442.846 87.8953C448.76 83.0982 454.37 76.6212 460.987 73.2612C462.169 72.6613 461.15 70.6119 459.976 71.2076Z" fill="#F1F1F1"/>
<path id="Vector_54" d="M186.22 66.7004H158.644C156.762 53.7823 156.762 40.5765 158.644 27.6584H186.22C183.113 40.411 183.113 53.9478 186.22 66.7004Z" fill="#FF6584"/>
<path id="Vector_55" d="M243.655 55.7648H271.232C273.114 42.8467 273.114 29.6409 271.232 16.7229H243.655C246.762 29.4754 246.762 43.0122 243.655 55.7648Z" fill="#02DA99"/>
<path id="Vector_56" d="M352.303 53.9982H379.88C381.761 41.0802 381.761 27.8743 379.88 14.9563H352.303C355.41 27.7088 355.41 41.2456 352.303 53.9982Z" fill="#02DA99"/>
</g>
</svg>
