<svg width="1366" height="768" viewBox="0 0 1366 768" fill="none" xmlns="http://www.w3.org/2000/svg">
<g clip-path="url(#clip0)">
<path d="M1 647.238C1 647.238 1028.85 877.396 1366.8 647.238C1704.75 417.081 1366.8 768 1366.8 768H1V647.238Z" fill="#02DA99"/>
<path d="M1 583.273C1 583.273 968.507 937.725 1286.62 618.512C1604.73 299.298 1286.62 786 1286.62 786L1 750.761V583.273Z" fill="#02DA99" fill-opacity="0.2"/>
<path d="M1467.37 280.34C1521.94 316.912 1444.98 218.626 1159.69 0.498786C915.397 -191.232 574.863 -396.974 326.6 -313.55C-108.646 -167.294 399.843 -464.175 399.843 -464.175L1540.61 129.715L1467.37 280.34Z" fill="#02DA99" fill-opacity="0.2"/>
<path d="M1499.37 251.342C1499.37 251.342 784.273 -490.513 358.6 -342.549C-67.0738 -194.584 431.842 -493.174 431.842 -493.174L1572.61 100.717L1499.37 251.342Z" fill="#02DA99" fill-opacity="0.2"/>
</g>
<defs>
<clipPath id="clip0">
<rect width="1366" height="768" fill="white"/>
</clipPath>
</defs>
</svg>
